Format                         : AVI
Format/Info                    : Audio Video Interleave
File size                      : 1.67 GiB
Duration                       : 2h 0mn
Overall bit rate               : 1 985 Kbps
Writing application            : VirtualDubMod 1.5.10.2 (build 2540/release)
Writing library                : VirtualDubMod build 2540/release

Video
ID                             : 0
Format                         : MPEG-4 Visual
Format profile                 : Advanced Simple@L5
Format settings, BVOP          : 2
Format settings, QPel          : No
Format settings, GMC           : No warppoints
Format settings, Matrix        : Default (MPEG)
Codec ID                       : XVID
Codec ID/Hint                  : XviD
Duration                       : 2h 0mn
Bit rate                       : 1 653 Kbps
Width                          : 720 pixels
Height                         : 400 pixels
Display aspect ratio           : 16:9
Frame rate                     : 25.000 fps
Color space                    : YUV
Chroma subsampling             : 4:2:0
Bit depth                      : 8 bits
Scan type                      : Progressive
Compression mode               : Lossy
Bits/(Pixel*Frame)             : 0.230
Stream size                    : 1.39 GiB (83%)
Writing library                : XviD 64

Audio
ID                             : 1
Format                         : MPEG Audio
Format version                 : Version 1
Format profile                 : Layer 3
Mode                           : Joint stereo
Mode extension                 : MS Stereo
Codec ID                       : 55
Codec ID/Hint                  : MP3
Duration                       : 2h 0mn
Bit rate mode                  : Constant
Bit rate                       : 320 Kbps
Channel(s)                     : 2 channels
Sampling rate                  : 44.1 KHz
Compression mode               : Lossy
Stream size                    : 276 MiB (16%)
Alignment                      : Aligned on interleaves
Interleave, duration           : 26 ms (0.65 video frame)
Interleave, preload duration   : 435 ms
Writing library                : LAME3.98.2
